<?xml version="1.0" encoding="utf-8"?>

<!DOCTYPE svg PUBLIC "-//W3C//DTD SVG 1.1//EN" "http://www.w3.org/Graphics/SVG/1.1/DTD/svg11.dtd">
<!-- Uploaded to: SVG Repo, www.svgrepo.com, Generator: SVG Repo Mixer Tools -->
<svg height="800px" width="800px" version="1.1" id="_x32_" xmlns="http://www.w3.org/2000/svg" xmlns:xlink="http://www.w3.org/1999/xlink" 
	 viewBox="0 0 512 512"  xml:space="preserve">
<style type="text/css">
	.st0{fill:#000000;}
</style>
<g>
	<path class="st0" d="M90.358,286.146c-0.38,1.276-0.758,2.545-1.138,3.806c3.961,1.61,8.03,5.91,9.508,12.046
		c1.54,6.018,0.193,13.561-4.076,18.404c-4.17,4.959-10.32,6.251-15.07,4.364c-4.843-1.841-8.169-6.529-9.461-11.125
		c-0.936,0.387-1.864,0.781-2.77,1.161c1.2,5.654,4.665,12.099,10.854,15.232c3.063,1.571,6.684,2.19,10.397,1.493
		c3.698-0.696,7.427-2.816,10.351-6.174c2.939-3.334,4.904-7.782,5.632-12.308c0.728-4.542,0.302-9.082-0.99-12.982
		C100.979,292.149,95.27,287.576,90.358,286.146z"/>
	<path class="st0" d="M171.425,284.575c-0.456,1.346-0.906,2.7-1.354,4.046c4.974,1.787,9.995,6.436,11.813,12.95
		c1.888,6.39,0.263,14.358-4.99,19.565c-5.152,5.307-12.881,6.854-19.085,4.904c-6.289-1.864-10.815-6.924-12.578-11.967
		c-1.285,0.433-2.553,0.866-3.829,1.299c1.648,6.189,6.474,13.16,14.558,16.4c3.985,1.617,8.626,2.151,13.284,1.331
		c4.641-0.82,9.237-3.18,12.811-6.777c3.605-3.612,5.972-8.278,6.846-13.066c0.874-4.773,0.371-9.6-1.199-13.701
		C184.522,291.174,177.567,286.238,171.425,284.575z"/>
	<path class="st0" d="M276.914,299.699c-3.102-8.262-9.964-13.29-16.122-15.07c-0.418,1.338-0.827,2.677-1.245,4.015
		c4.998,1.88,9.988,6.568,11.798,13.004c1.888,6.344,0.302,14.196-4.905,19.41c-5.122,5.331-12.888,7.009-19.216,5.122
		c-6.422-1.802-11.11-6.885-12.943-12.014c-1.354,0.448-2.716,0.89-4.077,1.338c1.718,6.336,6.746,13.361,14.993,16.486
		c4.07,1.547,8.765,2.026,13.43,1.099c4.657-0.905,9.222-3.334,12.764-6.939c3.543-3.613,5.864-8.255,6.715-12.959
		C278.965,308.472,278.462,303.784,276.914,299.699z"/>
	<path class="st0" d="M340.63,286.316c-0.31,1.237-0.62,2.476-0.928,3.721c3.992,1.841,7.829,6.251,9.214,12.184
		c1.431,5.872,0.27,13.058-3.768,17.94c-3.961,4.982-10.165,6.708-15.348,5.006c-5.261-1.594-9.191-6.39-10.738-11.256
		c-1.16,0.433-2.328,0.866-3.497,1.291c1.439,6.019,5.694,12.672,12.486,15.481c3.342,1.392,7.164,1.732,10.877,0.781
		c3.722-0.928,7.28-3.264,9.98-6.653c2.708-3.396,4.433-7.659,5.075-11.968c0.635-4.309,0.263-8.618-0.89-12.37
		C350.779,292.868,345.534,288.095,340.63,286.316z"/>
	<path class="st0" d="M118.324,262.658c3.543,1.331,7.782,1.648,12.146,0.665c4.347-0.974,8.772-3.373,12.3-6.885
		c3.528-3.504,5.988-7.93,7.04-12.308c1.06-4.371,0.835-8.634-0.387-12.192c-2.46-7.218-8.463-11.125-13.909-12.285
		c-0.511,1.153-1.013,2.321-1.516,3.482c4.378,1.33,8.649,5.114,9.941,10.769c1.369,5.57-0.55,12.834-5.717,17.87
		c-5.074,5.137-12.332,6.924-17.871,5.4c-5.616-1.462-9.36-5.896-10.598-10.374c-1.176,0.472-2.351,0.936-3.52,1.408
		C107.292,253.746,111.13,259.982,118.324,262.658z"/>
	<path class="st0" d="M203.7,260.833c4.078,1.531,8.827,2.011,13.546,1.152c4.727-0.844,9.345-3.141,12.88-6.56
		c3.544-3.428,5.803-7.806,6.561-12.177c0.766-4.378,0.154-8.687-1.47-12.339c-3.272-7.419-10.064-11.65-16.045-13.128
		c-0.402,1.138-0.82,2.266-1.237,3.427c4.874,1.578,9.817,5.616,11.712,11.41c1.964,5.686,0.526,12.989-4.672,17.871
		c-5.09,5.021-12.958,6.584-19.263,4.758c-6.406-1.733-10.97-6.514-12.672-11.202c-1.331,0.418-2.661,0.844-3.992,1.261
		C190.602,251.124,195.437,257.777,203.7,260.833z"/>
	<path class="st0" d="M290.855,262.024c3.836,1.617,8.2,2.258,12.393,1.578c4.209-0.65,8.185-2.708,11.11-5.902
		c2.94-3.18,4.68-7.303,5.106-11.512c0.433-4.208-0.348-8.424-2.011-12.107c-3.357-7.435-9.84-12.029-15.48-13.801
		c-0.271,1.114-0.534,2.22-0.805,3.35c4.618,1.802,9.415,6.096,11.48,11.859c2.128,5.678,1.292,12.672-3.055,17.236
		c-4.24,4.649-11.248,5.902-17.167,3.899c-6.011-1.926-10.637-6.823-12.602-11.55c-1.238,0.356-2.475,0.719-3.721,1.083
		C277.997,251.983,283.041,258.752,290.855,262.024z"/>
	<path class="st0" d="M148.418,369.092c-3.373-7.829-10.15-12.819-15.944-14.637c-0.348,1.269-0.696,2.537-1.037,3.79
		c4.712,1.896,9.632,6.468,11.658,12.494c2.104,5.949,1.029,12.974-3.45,17.306c-4.379,4.432-11.272,5.407-17.004,3.435
		c-5.802-1.904-10.235-6.545-12.177-11.132c-1.114,0.309-2.228,0.619-3.342,0.928c1.934,5.609,6.769,11.936,14.296,15.031
		c3.706,1.563,7.922,2.206,12.084,1.702c4.146-0.519,8.154-2.305,11.217-5.292c3.048-2.955,4.967-6.963,5.524-11.179
		C150.8,377.316,150.088,372.945,148.418,369.092z"/>
	<path class="st0" d="M236.508,382.483c0.968-4.286,0.565-8.68-0.904-12.509c-2.971-7.774-9.91-12.61-16.146-14.258
		c-0.449,1.307-0.89,2.615-1.339,3.922c5.044,1.748,10.042,6.235,11.743,12.246c1.795,5.949,0.047,13.121-5.151,17.708
		c-5.098,4.711-12.634,6.081-18.768,4.409c-6.227-1.594-10.838-6.088-12.718-10.66c-1.299,0.372-2.599,0.75-3.898,1.13
		c1.81,5.662,6.792,11.774,14.76,14.482c3.93,1.362,8.456,1.779,12.981,1.037c4.518-0.751,8.99-2.777,12.532-5.933
		C233.151,390.908,235.557,386.754,236.508,382.483z"/>
	<path class="st0" d="M305.244,354.038c-0.449,1.292-0.906,2.568-1.362,3.86c4.44,1.532,8.618,5.678,9.794,11.442
		c1.269,5.678-0.696,12.749-5.724,17.569c-4.951,4.866-12.038,6.661-17.623,5.292c-5.678-1.292-9.655-5.508-11.055-9.972
		c-1.277,0.434-2.561,0.874-3.845,1.315c1.253,5.539,5.43,11.372,12.656,13.693c3.559,1.145,7.744,1.346,11.984,0.364
		c4.239-0.967,8.486-3.226,11.906-6.537c3.419-3.303,5.818-7.496,6.901-11.712c1.098-4.24,0.99-8.464-0.109-12.114
		C316.585,359.856,310.752,355.445,305.244,354.038z"/>
	<path class="st0" d="M170.945,417.552c-0.317,1.005-0.627,1.995-0.928,2.978c4.711,1.478,9.592,5.006,11.588,9.369
		c2.074,4.332,1.053,9.136-3.102,12.06c-4.076,2.963-10.513,3.753-16.114,2.669c-5.671-1.036-10.282-4.015-12.456-7.287
		c-1.114,0.255-2.22,0.503-3.318,0.75c2.244,4.016,7.419,8.03,14.753,9.678c3.62,0.828,7.628,1.083,11.511,0.642
		c3.868-0.456,7.566-1.633,10.397-3.566c2.831-1.911,4.626-4.549,5.152-7.427c0.526-2.878-0.132-5.996-1.748-8.788
		C183.447,422.92,176.754,418.975,170.945,417.552z"/>
	<path class="st0" d="M253.18,417.598c-0.487,1.021-0.974,2.042-1.454,3.04c4.495,1.23,8.711,4.573,9.771,8.92
		c1.138,4.309-1.068,9.307-6.088,12.316c-4.951,3.094-11.689,3.899-16.989,2.916c-5.36-0.943-9.19-3.69-10.644-6.761
		c-1.199,0.271-2.383,0.542-3.574,0.805c1.362,3.745,5.438,7.419,12.208,8.982c3.357,0.797,7.272,1.021,11.311,0.596
		c4.022-0.449,8.153-1.648,11.588-3.675c3.435-1.996,5.98-4.758,7.226-7.744c1.253-2.979,1.284-6.15,0.263-8.92
		C264.769,422.386,258.789,418.743,253.18,417.598z"/>
	<path class="st0" d="M156.772,199.772c3.543,1.075,7.814,1.323,12.185,0.541c4.363-0.781,8.757-2.661,12.23-5.33
		c3.474-2.654,5.826-5.926,6.823-9.02c1.021-3.094,0.79-6.003-0.356-8.378c-2.305-4.789-7.829-7.186-12.888-8.084
		c-0.495,0.68-0.99,1.377-1.485,2.088c4.1,0.96,8.046,3.389,9.237,7.21c1.245,3.729-0.588,8.889-5.678,12.633
		c-5.005,3.814-12.269,5.214-17.793,4c-5.616-1.145-9.237-4.642-10.266-8.03c-1.23,0.341-2.453,0.666-3.675,1.014
		C145.88,192.639,149.578,197.636,156.772,199.772z"/>
	<path class="st0" d="M238.652,199.021c3.814,1.23,8.216,1.718,12.486,1.138c4.271-0.565,8.332-2.236,11.279-4.774
		c2.963-2.53,4.642-5.747,4.951-8.873c0.31-3.141-0.635-6.158-2.429-8.625c-3.621-5.013-10.042-7.52-15.41-8.386
		c-0.248,0.68-0.511,1.369-0.766,2.073c4.417,0.967,9.175,3.496,11.388,7.426c2.258,3.852,1.601,9.067-2.746,12.61
		c-4.232,3.605-11.334,4.68-17.198,3.203c-5.949-1.4-10.358-5.037-12.138-8.355c-1.192,0.279-2.383,0.565-3.574,0.843
		C226.15,191.424,230.885,196.53,238.652,199.021z"/>
	<path class="st0" d="M440.982,179.046c31.455-10.869,50.788-74.986,34.14-101.954c0.619,17.314-30.526,30.427-41.388,11.813
		C426.709,58.742,485.047,29.438,512,25.616c-12.803-19.27-83.179-27.726-108.67,7.109c-17.166,23.448-11.929,38.797-34.704,30.109
		c-24.91-9.53-3.179-43.817,16.757-50.045C306.8-1.747,326.905,78.802,297.407,71.058c-29.505-7.736-1.88-32.708,1.331-35.919
		c-52.969-8.455-40.336,46.618-81.245,57.225c-24.253,9.089-38.34,10.876-51.399,13.143
		C95.966,117.715,34.612,167.009,10.413,239.249c-35.106,104.878,21.437,218.337,126.3,253.459
		c104.87,35.106,218.344-21.422,253.466-126.3c4.656-13.909,7.682-27.966,9.198-41.976c1.122-10.39,5.678-22.876,9.639-32.112
		c12.2-28.531,46.796-38.728,55.212-52.096c18.83-29.931,3.597-48.737,3.597-48.737s-7.001,17.746-26.882,19.642
		C421.046,213.031,409.535,189.916,440.982,179.046z M365.679,358.208c-15.31,45.697-47.616,80.78-87.596,100.724
		c-39.996,19.913-87.457,24.57-133.17,9.284c-45.705-15.318-80.781-47.623-100.717-87.604
		c-19.92-39.995-24.577-87.457-9.283-133.162c15.31-45.713,47.616-80.788,87.596-100.717c39.996-19.92,87.45-24.592,133.162-9.283
		c45.704,15.302,80.788,47.6,100.732,87.596C376.316,265.041,380.973,312.487,365.679,358.208z"/>
</g>
</svg>